<?xml version="1.0" encoding="UTF-8" standalone="no"?>
<!-- Created with Inkscape (http://www.inkscape.org/) -->

<svg
   width="512"
   height="512"
   viewBox="0 0 512 512"
   version="1.1"
   id="svg1"
   xml:space="preserve"
   xmlns="http://www.w3.org/2000/svg"
   xmlns:svg="http://www.w3.org/2000/svg"><defs
     id="defs1" /><g
     id="layer1"
     style="display:inline"><path
       fill="#000000"
       opacity="1"
       stroke="none"
       d="m 420.47525,355.85868 c -16.2413,4.29905 -31.15989,-6.55577 -31.7011,-22.90443 -0.0958,-2.89312 -1.24825,-4.3091 -3.69529,-5.51344 -27.14809,-13.36099 -54.2698,-26.77602 -81.34248,-40.28898 -2.23953,-1.11783 -3.44543,-1.04851 -4.90722,1.06561 -2.93556,4.2455 -6.38229,8.10453 -10.81679,10.84581 -2.29652,1.4197 -2.14146,2.86353 -1.09371,4.96723 6.80679,13.66715 13.50639,27.38761 20.2816,41.07059 7.03018,14.19786 14.1662,28.34373 21.10871,42.5841 1.30987,2.68689 2.90465,3.64283 5.93007,3.64413 13.88819,0.005 24.0812,9.92427 24.7181,23.72218 0.5667,12.27633 -10.06966,23.89637 -23.23115,24.51647 -9.56168,0.45047 -17.3621,-3.81389 -22.07351,-12.19577 -4.86334,-8.65212 -4.64222,-17.72233 1.2969,-25.82781 2.50499,-3.41874 2.17677,-5.72748 0.45264,-9.14717 -13.62171,-27.01677 -27.0405,-54.13582 -40.55129,-81.20864 -0.9478,-1.89923 -1.33377,-4.58499 -4.77051,-3.28497 -3.20208,1.21126 -7.13204,0.33953 -7.07781,6.24986 0.31305,34.12529 0.19465,68.25491 0.12306,102.38285 -0.005,3.04443 0.69279,4.80804 3.7682,6.1883 9.86993,4.42972 15.38558,16.24367 12.97332,26.79604 -2.56659,11.2272 -11.58641,18.17297 -22.94089,18.74201 -12.89959,0.64657 -22.00154,-8.40028 -24.27483,-18.11058 -2.74638,-11.7312 2.45253,-22.56724 13.63272,-27.86392 2.03465,-0.96397 2.7132,-2.16532 2.7125,-4.25237 -0.0122,-35.12757 -0.0151,-70.25517 0.0574,-105.38264 0.0109,-5.09027 -4.32812,-3.46075 -6.77902,-4.71743 -2.50122,-1.28254 -3.4917,0.44851 -4.4527,2.39498 -13.89877,28.15184 -27.80931,56.298 -41.80154,84.40344 -1.03761,2.08421 -0.92954,3.43168 0.53238,5.31658 6.53886,8.43064 7.10958,20.21456 1.63118,28.44898 -5.9795,8.9876 -16.24305,12.89398 -26.92297,10.24706 -9.53213,-2.36241 -16.74103,-11.14697 -17.86168,-21.76567 -1.41255,-13.38465 11.00527,-26.52895 24.76706,-25.88015 2.93564,0.13836 4.33958,-0.65019 5.60226,-3.19843 13.30877,-26.85853 26.74461,-53.65399 40.0969,-80.49097 2.89744,-5.82358 2.69337,-5.73877 -2.30416,-10.20741 -2.85646,-2.55413 -5.5736,-5.39088 -7.77934,-8.50682 -1.83986,-2.59911 -3.34168,-2.65264 -5.96454,-1.3355 -23.33571,11.71847 -46.73055,23.31919 -70.11028,34.94989 -1.66122,0.82637 -3.31393,1.67842 -5.01726,2.40984 -5.45332,2.34158 -9.2178,4.78421 -9.97499,12.22995 -1.35981,13.37162 -13.8341,21.39755 -27.46304,19.70411 -11.67111,-1.45014 -20.456985,-12.24484 -20.244294,-24.87298 0.206402,-12.25366 10.173972,-22.51254 23.030864,-23.26458 6.51028,-0.38082 12.43979,1.73928 17.21017,6.30677 1.64997,1.57973 2.93367,1.66148 4.86683,0.70324 27.23845,-13.50195 54.50253,-26.95215 81.77515,-40.38504 2.08722,-1.02809 3.89094,-2.07024 2.54866,-4.80775 -1.35438,-2.76215 0.38331,-7.25587 -5.60736,-7.21397 -34.41202,0.24058 -68.82665,0.12883 -103.24022,0.0541 -2.76033,-0.006 -4.321685,0.76157 -5.552099,3.45017 -4.673451,10.21233 -16.20565,15.70321 -27.027013,13.20438 -11.457394,-2.6457 -19.302238,-12.14148 -19.429328,-23.5181 -0.127817,-11.44312 8.219438,-21.48333 19.970982,-24.02149 10.504957,-2.26892 21.914443,3.46414 26.505522,13.59971 1.122763,2.47871 2.502916,3.3656 5.155656,3.35864 34.5563,-0.0905 69.11334,-0.19212 103.66869,-0.005 4.89886,0.0264 4.36819,-3.27848 5.41617,-6.02663 1.18235,-3.10059 -0.78923,-3.98529 -2.97047,-5.0359 -26.48789,-12.75811 -52.98849,-25.49065 -79.3988,-38.40769 -3.31008,-1.61891 -5.54675,-1.28498 -8.43033,0.89275 -11.46895,8.66148 -27.203216,5.73511 -34.760136,-6.2135 -7.620198,-12.04863 -3.647482,-27.3746 8.888619,-34.2906 15.548607,-8.57798 35.113307,2.56817 35.727767,20.60162 0.13006,3.81736 1.5892,5.4761 4.76577,6.98565 26.16888,12.4359 52.29478,24.96338 78.35375,37.62768 3.34883,1.62749 5.34891,1.4714 7.34224,-1.85007 2.52492,-4.20731 6.22082,-7.44413 10.24164,-10.21003 2.08294,-1.43284 2.72166,-2.62312 1.47416,-5.20596 -13.46772,-27.88418 -26.80883,-55.82968 -40.10407,-83.79668 -1.24432,-2.6175 -2.63878,-3.65803 -5.80122,-3.67767 -11.66458,-0.0725 -20.56708,-7.17034 -23.58397,-18.1583 -2.6331,-9.590186 1.56529,-20.527781 9.93032,-25.870298 9.41437,-6.012713 20.89005,-5.255318 29.4329,1.942627 9.5445,8.041938 10.84252,22.955651 2.73458,33.189021 -1.40631,1.77497 -1.98025,3.13766 -0.92737,5.3247 13.86575,28.80218 27.65523,57.6411 41.47788,86.46407 0.2384,0.49714 0.65075,0.9109 0.94506,1.31317 9.37267,-1.35039 9.39998,-1.35039 9.40142,-10.19533 0.005,-32.98578 -0.0488,-65.97163 0.0465,-98.957096 0.009,-3.2602 -0.85979,-5.014607 -4.00547,-6.499774 -11.37549,-5.370734 -16.192,-19.132649 -11.23734,-30.991861 4.5908,-10.988348 18.33226,-17.180094 29.65231,-13.361034 12.23277,4.126962 19.07388,16.265824 16.24638,28.382626 -1.83,7.841894 -6.5027,13.206577 -13.62435,16.493424 -2.15637,0.9952 -2.97447,2.212429 -2.97112,4.523739 0.0512,35.127606 0.095,70.255466 -0.0182,105.382766 -0.0147,4.56889 3.3971,3.71236 5.83447,4.54887 2.46426,0.84572 4.25269,0.43142 5.53344,-2.26849 13.3929,-28.2339 26.84721,-56.43892 40.40298,-84.5949 1.26938,-2.6366 0.20432,-4.13432 -1.22222,-6.07842 -5.94231,-8.09834 -6.84463,-16.845466 -2.14037,-25.729809 4.8921,-9.239083 13.01646,-13.614303 23.32961,-12.716329 10.49014,0.913396 17.70377,6.706616 21.00998,16.86926 4.96892,15.273648 -7.37546,31.606898 -23.52275,30.941738 -2.84207,-0.11708 -4.0444,0.79544 -5.1719,3.16073 -13.44715,28.20931 -26.95312,56.39072 -40.54648,84.52981 -1.06366,2.20179 -0.51436,3.30938 1.21373,4.61254 4.69866,3.5433 9.05475,7.46884 11.9251,12.71303 1.30527,2.38476 2.8113,1.2301 4.30557,0.51485 13.77605,-6.59377 27.54143,-13.20974 41.30759,-19.82414 13.12163,-6.3047 26.20912,-12.68185 39.3855,-18.86977 2.79964,-1.31478 3.98891,-2.87036 4.03556,-6.12737 0.18906,-13.19348 10.75983,-23.67494 23.71422,-23.90811 12.6887,-0.22838 23.58222,9.05575 24.6025,20.96778 1.21229,14.15318 -7.63149,25.51969 -21.43348,27.14491 -6.49101,0.76436 -12.53709,-0.97535 -17.55821,-5.25848 -2.29396,-1.95679 -4.20746,-2.16232 -6.91151,-0.85291 -26.97193,13.06064 -53.99413,26.0175 -81.01864,38.96933 -1.97578,0.94693 -3.58338,1.88852 -2.46521,4.46732 1.12673,2.59859 0.20084,6.48873 5.15434,6.40671 12.56247,-0.208 25.13073,-0.0537 37.69669,-0.0604 21.84758,-0.0119 43.69543,-0.0877 65.54253,0.004 3.11579,0.0131 4.75885,-0.95474 6.18377,-3.85628 4.5642,-9.29376 14.97055,-14.64866 24.81333,-13.25371 10.55508,1.49591 19.05379,9.40024 20.85172,19.39333 1.94366,10.80359 -2.67675,20.63051 -12.22828,26.00775 -11.59697,6.52877 -26.83262,2.08064 -33.04055,-10.05015 -1.73871,-3.39754 -3.74939,-4.26977 -7.2914,-4.25842 -33.69931,0.10802 -67.39919,0.0486 -101.09885,0.0576 -2.34785,6.3e-4 -5.20893,-0.64788 -5.60441,2.94725 -0.39198,3.56375 -3.15878,7.11947 2.64316,9.87463 27.0689,12.85448 53.89326,26.22434 80.78435,39.45204 1.68909,0.83083 2.93252,1.1295 4.56612,-0.33686 8.33958,-7.4856 17.79143,-8.99129 27.68719,-3.74587 9.36,4.96139 13.53855,13.33421 12.69089,23.80825 -0.83211,10.28187 -6.72087,16.96198 -16.61374,20.63912 z"
       id="path1"
       style="stroke-width:0.856859" /></g></svg>
