<?xml version="1.0" encoding="UTF-8" standalone="no"?>
<!-- Created with Inkscape (http://www.inkscape.org/) -->

<svg
   width="512"
   height="512"
   viewBox="0 0 512 512"
   version="1.1"
   id="svg1"
   inkscape:version="1.4.2 (f4327f4, 2025-05-13)"
   xml:space="preserve"
   sodipodi:docname="Medium.svg"
   xmlns:inkscape="http://www.inkscape.org/namespaces/inkscape"
   xmlns:sodipodi="http://sodipodi.sourceforge.net/DTD/sodipodi-0.dtd"
   xmlns="http://www.w3.org/2000/svg"
   xmlns:svg="http://www.w3.org/2000/svg"><sodipodi:namedview
     id="namedview1"
     pagecolor="#ffffff"
     bordercolor="#000000"
     borderopacity="0.25"
     inkscape:showpageshadow="2"
     inkscape:pageopacity="0.0"
     inkscape:pagecheckerboard="0"
     inkscape:deskcolor="#d1d1d1"
     inkscape:document-units="px"
     inkscape:zoom="1.2265625"
     inkscape:cx="180.17834"
     inkscape:cy="302.06369"
     inkscape:window-width="1920"
     inkscape:window-height="1057"
     inkscape:window-x="-8"
     inkscape:window-y="-8"
     inkscape:window-maximized="1"
     inkscape:current-layer="svg1" /><defs
     id="defs1"><inkscape:path-effect
       effect="fillet_chamfer"
       id="path-effect1"
       is_visible="true"
       lpeversion="1"
       nodesatellites_param="F,0,0,1,0,0,0,1 @ F,0,0,1,0,0,0,1 @ F,0,0,1,0,0,0,1 @ F,0,0,1,0,0,0,1"
       radius="0"
       unit="px"
       method="auto"
       mode="F"
       chamfer_steps="1"
       flexible="false"
       use_knot_distance="true"
       apply_no_radius="true"
       apply_with_radius="true"
       only_selected="false"
       hide_knots="false" /></defs><g
     inkscape:label="Icon"
     inkscape:groupmode="layer"
     id="layer1"
     style="display:inline"><g
       id="g1"
       transform="matrix(0.65371171,0,0,0.65371171,-79.373138,86.247436)"><path
         fill="#000000"
         opacity="1"
         stroke="none"
         d="m 545.53137,1 c 6.41992,0.526381 12.36371,1.167605 18.32392,1.55916 25.12829,1.650805 49.85119,5.90067 74.47186,11.044622 43.48907,9.086096 85.62909,22.292695 126.59283,39.529206 21.44837,9.024918 37.41211,23.080368 46.98059,44.476845 10.49951,23.478517 19.60804,47.366427 23.79206,72.878447 1.815,11.06685 2.20105,22.16725 0.50335,33.30443 -1.19482,7.83803 -2.62683,8.91809 -10.98889,7.20198 -18.43078,-3.78243 -36.61535,-8.57309 -54.72357,-13.65617 -27.40894,-7.69387 -54.8186,-15.38198 -81.24011,-26.15287 -9.42914,-3.84387 -18.42896,-8.55474 -27.43317,-13.26442 -3.70624,-1.93856 -6.60266,-4.6546 -7.19024,-9.01263 -3.38654,-25.11969 -21.36603,-34.37643 -43.01069,-39.60644 -17.91394,-4.32853 -36.28772,-4.72344 -54.53674,-5.82657 -22.11798,-1.33703 -44.30139,-1.92025 -66.4455,-1.00991 -25.76577,1.05924 -51.58828,2.10817 -76.86273,7.99028 -8.11749,1.88919 -16.13382,4.27683 -23.35034,8.6152 -8.53122,5.12872 -14.33035,12.54887 -16.48724,22.27505 -1.5043,6.78346 -5.29087,10.99846 -11.26114,14.24066 -44.3309,24.07408 -90.8559,42.1931 -140.42337,52.07387 -7.98366,1.59146 -16.12605,2.38377 -24.19209,3.56587 -4.24491,0.62208 -6.46091,-1.19824 -7.40619,-5.38233 -3.1534,-13.95771 -1.94738,-27.77736 0.89428,-41.58569 5.23038,-25.41582 14.09732,-49.5264 25.47409,-72.821067 8.51244,-17.429772 22.42983,-28.650566 39.71025,-36.23774 C 300.1741,36.121941 345.25149,22.176702 391.73935,12.729398 421.95755,6.58843 452.4389,2.639822 483.27991,1.645269 484.27063,1.613319 485.25623,1.422158 486.62213,1.152608 506.35422,1 525.70843,1 545.53137,1 Z"
         id="path1" /><path
         fill="#000000"
         opacity="1"
         stroke="none"
         d="m 274.91022,418.09555 c -3.85236,-3.94751 -7.54636,-7.56369 -10.99671,-11.39908 -11.17366,-12.42059 -11.44899,-22.13797 -0.8782,-35.03759 14.16385,-17.2844 29.23648,-33.71192 45.95462,-48.60117 37.13553,-33.07306 78.28619,-59.29715 126.24881,-73.74446 34.18814,-10.29819 68.92843,-13.70551 104.56619,-8.91826 51.02161,6.8538 96.45386,27.17291 138.74158,55.54657 28.46576,19.09958 54.4082,41.21829 78.15723,65.91888 2.65094,2.7572 5.25067,5.59043 7.61309,8.59375 9.7381,12.3801 8.77857,22.33231 -2.93194,32.66034 -11.36743,10.02551 -22.80695,19.96427 -34.85718,29.17017 -37.12903,28.36514 -76.81824,52.25195 -120.86145,68.35107 -33.12878,12.10953 -67.2395,19.03281 -102.68558,17.50437 -33.88547,-1.46125 -66.59521,-8.8375 -98.07104,-21.31672 -44.9148,-17.80734 -86.2432,-41.81365 -123.37171,-72.86364 -2.1712,-1.81571 -4.2409,-3.75272 -6.62771,-5.86423 m 286.3161,38.64472 c 33.95605,-22.159 49.82635,-58.75657 42.1911,-97.29416 -9.66577,-48.78626 -59.34912,-81.66388 -108.25903,-71.6026 -48.5579,9.98886 -82.60553,55.79449 -72.49436,109.41839 7.78357,41.27924 47.42709,73.33032 89.52677,73.40274 17.38952,0.0299 33.55804,-4.45425 49.03552,-13.92437 M 316.09103,408.3898 c 36.00119,26.88971 74.75907,48.49774 118.1655,61.83579 -25.38754,-25.26249 -40.48294,-54.70478 -40.62143,-90.93512 -0.13806,-36.11756 13.81381,-66.03141 40.75516,-91.31436 -2.10016,0.15554 -2.76828,0.10482 -3.37656,0.27188 -1.11694,0.3067 -2.21505,0.70053 -3.29272,1.12915 -39.27524,15.62152 -74.24579,38.11001 -105.49164,66.44964 -9.13519,8.28549 -17.36472,17.46405 -25.06189,27.12442 -3.07629,3.86093 -3.04059,6.61289 0.95856,10.01215 5.82913,4.95468 11.32828,10.30435 17.96502,15.42645 m 295.59818,53.73596 c 40.85547,-17.70901 77.77875,-41.55633 110.91766,-71.25897 6.73816,-6.03952 6.77436,-7.71194 0.6037,-14.16467 -35.24799,-36.85904 -76.60437,-64.90103 -123.3515,-85.10037 -1.35504,-0.58548 -2.81085,-1.6731 -4.99939,-0.60178 25.58728,25.05548 38.25201,55.14102 37.50617,90.69888 -0.7486,35.68671 -15.58942,64.69553 -42.47394,88.70563 7.77569,-2.103 14.44201,-5.03455 21.7973,-8.27872 z"
         id="path2" /><path
         fill="#000000"
         opacity="1"
         stroke="none"
         d="m 297.04114,266.20569 c -7.98435,2.55527 -15.66397,4.798 -23.17017,7.51907 -37.41116,13.5621 -63.6245,-8.79162 -74.28696,-36.43968 -4.08966,-10.60457 -3.75311,-10.97823 7.61431,-12.55531 57.9098,-8.03423 112.33006,-26.35936 163.12746,-55.3595 1.42425,-0.8131 2.90695,-1.5238 4.33166,-2.26625 0.61569,0.45152 1.22025,0.65495 1.35556,1.02838 8.47449,23.39011 9.59122,46.08221 -9.80795,65.88872 -7.78687,7.95038 -17.72071,12.9608 -28.06098,16.91926 -13.52664,5.17821 -27.14138,10.12627 -41.10293,15.26531 z"
         id="path3" /><path
         fill="#000000"
         opacity="1"
         stroke="none"
         d="m 781.25726,216.63071 c 13.80194,3.39434 27.21314,6.6465 40.79431,9.15963 6.43067,1.18998 7.37647,2.76802 5.2732,8.83541 -6.89441,19.88899 -18.60706,35.30034 -39.72943,41.48347 -8.318,2.43491 -16.84595,1.92322 -25.16669,-0.25268 -27.91168,-7.29904 -54.79834,-17.63321 -81.29675,-28.8344 -19.39698,-8.19931 -32.56623,-22.25046 -34.99494,-44.32346 -1.09619,-9.96287 0.92511,-19.52749 3.64527,-28.99565 1.15374,-4.01567 3.67236,-2.78758 6.24243,-1.4774 25.8681,13.18721 52.74243,23.90976 80.54791,32.2101 14.65973,4.37613 29.51483,8.09764 44.68469,12.19498 z"
         id="path4" /><path
         fill="#000000"
         opacity="1"
         stroke="none"
         d="m 538.01001,432.14197 c -27.43185,12.16586 -58.49744,3.05368 -74.80167,-21.54608 -13.80948,-20.83564 -11.1261,-49.15662 -0.54782,-61.4022 3.38761,11.49433 10.26447,18.69007 22.75739,17.13382 8.48541,-1.05709 15.68756,-8.76565 16.08355,-16.89431 0.58701,-12.04935 -6.25347,-18.71619 -17.65356,-21.93781 15.02853,-9.03338 30.79639,-10.53409 47.17987,-5.53125 22.8985,6.99222 38.95191,27.29358 41.16644,51.49573 2.24573,24.54394 -10.48919,46.56305 -34.1842,58.6821 z"
         id="path5" /></g></g></svg>
