<?xml version="1.0" encoding="UTF-8" standalone="no"?>
<!-- Created with Inkscape (http://www.inkscape.org/) -->

<svg
   width="512"
   height="512"
   viewBox="0 0 512 512"
   version="1.1"
   id="svg1"
   xml:space="preserve"
   xmlns="http://www.w3.org/2000/svg"
   xmlns:svg="http://www.w3.org/2000/svg"><defs
     id="defs1" /><g
     id="layer1"
     style="display:inline"><path
       fill="#000000"
       opacity="1"
       stroke="none"
       d="m 336.68131,179.54951 c -4.18039,8.93406 -9.76504,16.41436 -15.96333,23.55333 1.32444,1.8698 3.18064,1.0384 4.70616,1.09774 11.5437,0.44903 20.31888,9.16188 20.45529,20.4369 0.13977,11.55415 -7.51129,19.70693 -19.37577,20.58723 -2.84362,0.211 -5.72219,0.56602 -8.54385,0.34156 -7.83079,-0.62302 -8.14547,-0.52507 -7.59387,7.49533 1.88652,27.42829 7.73525,53.96105 18.24878,79.41271 2.55141,6.17663 5.16584,12.32731 7.7055,18.50874 1.17619,2.86285 3.02177,4.29328 6.27233,4.97852 10.89174,2.29603 16.94178,10.13808 17.05418,21.23027 0.0445,4.38964 -1.0423,9.26825 0.51996,13.04055 1.82955,4.41813 7.75275,2.58471 11.72385,4.09282 13.6507,5.18422 21.55114,15.94501 21.91466,31.15338 0.24196,10.12284 0.097,20.25537 0.0911,30.38355 -0.005,8.32723 -0.027,8.35285 -8.676,8.35414 -68.41439,0.0104 -136.82878,0.0104 -205.24316,0.013 -18.34576,6.3e-4 -36.69392,-0.16644 -55.03578,0.10017 -5.29609,0.0769 -7.08764,-1.66941 -6.82279,-6.9031 0.64593,-12.76477 -1.07803,-25.61804 1.00352,-38.32648 2.2836,-13.94192 12.34527,-23.91084 26.23912,-25.7257 5.40044,-0.70536 7.97083,-2.62422 7.23436,-8.32667 -0.36367,-2.81585 -0.10229,-5.72773 0.0271,-8.58932 0.51856,-11.45848 5.937,-18.2536 17.02977,-20.61624 3.44593,-0.73398 5.39716,-2.42061 6.7527,-5.38421 13.93688,-30.47083 22.97609,-62.23732 25.33456,-95.76652 0.60136,-8.54925 -0.82838,-9.87248 -10.27485,-9.30671 -9.37752,0.5616 -17.45436,-1.27379 -22.20036,-10.54272 -7.60869,-14.85955 2.33686,-31.85219 17.47252,-30.66672 1.2488,0.0978 2.53468,-0.27763 4.74639,-0.5488 -2.25744,-2.97469 -4.08293,-5.30875 -5.83346,-7.69772 -21.51141,-29.35691 -25.72245,-60.97654 -11.76616,-94.63874 5.34491,-12.891833 14.04718,-23.50079 24.69078,-32.608242 4.21915,-3.610256 7.15332,-3.108486 10.51629,0.851211 2.30586,2.715021 3.85415,5.730256 4.6547,9.080171 1.51904,6.356343 5.12038,10.02311 11.87316,10.35145 2.27401,0.110544 4.54926,0.590125 6.78058,1.093353 3.48605,0.786272 5.78452,2.56518 5.82883,6.627507 0.0421,3.86196 1.62548,7.43799 2.91887,11.02458 1.12552,3.12114 0.41399,4.9086 -2.96705,6.02427 -3.2253,1.06431 -6.59327,1.84696 -9.51648,3.85108 -4.49023,3.07842 -5.91313,6.77362 -3.22439,11.75055 1.36489,2.52643 2.50689,5.14635 2.29022,8.14678 1.16602,-3.19575 0.36035,-6.07734 -1.30598,-8.86313 -2.50334,-4.18496 -0.91411,-7.19747 2.763,-9.67546 9.73961,-6.56351 13.80941,-4.97675 20.95398,3.77819 5.8116,7.12157 12.62104,13.31163 16.23576,22.05956 0.58708,1.42081 2.36028,3.0923 3.78227,3.30018 6.44715,0.94249 11.28405,5.12447 16.91329,7.67056 7.38433,3.33992 12.98977,9.80172 14.33101,17.89133 2.6431,-8.09771 -6.85318,-11.46703 -6.80551,-18.46072 -4.0714,0.22601 -7.21936,-1.767 -10.70215,-3.38797 -10.44373,-4.86075 -18.95987,-10.8554 -23.2766,-22.49954 -1.62685,-4.3883 -6.93323,-7.6192 -10.05124,-12.04164 -3.21298,-4.55716 -5.0196,-9.24654 -6.46209,-14.40435 -1.27215,-4.548878 -1.79417,-8.460544 3.99211,-10.261331 -1.44548,0.229412 -2.89095,0.458825 -4.25643,0.675533 -0.26169,-0.120807 -0.535,-0.155908 -0.59415,-0.287356 -3.7863,-8.41543 -12.02699,-8.334047 -19.28065,-10.20428 -1.78769,-0.460913 -2.73633,-2.067171 -3.19194,-3.792264 -1.76407,-6.679167 -4.12962,-13.068731 -8.94377,-18.194711 18.89516,-15.444461 61.92324,-19.955776 93.60959,1.454031 38.60062,26.08164 51.8654,75.546678 31.24137,117.310428 M 205.94,334.80425 c -0.24944,1.53742 -1.78647,3.19365 0.59111,4.44392 3.90406,2.05295 9.55937,-0.1078 11.01822,-4.39987 7.43934,-21.88719 12.34006,-44.31991 14.55056,-67.34732 0.59565,-6.20526 -0.0193,-6.85044 -6.18641,-6.53702 -4.88365,0.24819 -4.66083,3.83984 -4.91223,6.90287 -1.86598,22.73437 -7.12026,44.69316 -15.06125,66.93742 z"
       id="path1"
       style="stroke-width:1.14672" /></g></svg>
